<?xml version="1.0" encoding="UTF-8"?>
<svg width="64" height="64" viewBox="0 0 64 64" xmlns="http://www.w3.org/2000/svg">
  <!-- Terminal background -->
  <rect x="4" y="4" width="56" height="56" rx="6" fill="#000000" stroke="#00ff00" stroke-width="2"/>
  
  <!-- Terminal window controls -->
  <circle cx="12" cy="12" r="2" fill="#00ff00" opacity="0.7"/>
  <circle cx="20" cy="12" r="2" fill="#00ff00" opacity="0.5"/>
  <circle cx="28" cy="12" r="2" fill="#00ff00" opacity="0.3"/>
  
  <!-- Terminal line -->
  <line x1="8" y1="20" x2="56" y2="20" stroke="#00ff00" stroke-width="1" opacity="0.5"/>
  
  <!-- Git branching diagram -->
  <g stroke="#00ff00" stroke-width="2" fill="#00ff00">
    <!-- Main branch -->
    <line x1="16" y1="32" x2="48" y2="32"/>
    <!-- Branch commits -->
    <circle cx="20" cy="32" r="2" opacity="0.9"/>
    <circle cx="28" cy="32" r="2" opacity="0.9"/>
    <circle cx="36" cy="32" r="2" opacity="0.9"/>
    <circle cx="44" cy="32" r="2" opacity="0.9"/>
    
    <!-- Feature branch -->
    <path d="M28 32 Q32 28 36 28 Q40 28 44 32" fill="none"/>
    <circle cx="32" cy="28" r="2" opacity="0.7"/>
    <circle cx="40" cy="28" r="2" opacity="0.7"/>
  </g>
  
  <!-- Git diamond logo shape -->
  <g stroke="#00ff00" stroke-width="2" fill="none">
    <path d="M24 24 L32 16 L40 24 L32 32 L24 24" opacity="0.6"/>
  </g>
  
  <!-- Repository folder -->
  <g stroke="#00ff00" stroke-width="1" fill="none" opacity="0.5">
    <path d="M8 40 L8 48 L20 48 L20 44 L12 44 L12 40"/>
    <path d="M12 40 L14 38 L18 38 L20 40"/>
  </g>
  
  <!-- Git commands -->
  <g font-family="monospace" font-size="6" fill="#00ff00" opacity="0.6">
    <text x="24" y="42">commit</text>
    <text x="24" y="46">push</text>
    <text x="24" y="50">merge</text>
  </g>
  
  <!-- Version arrows -->
  <g stroke="#00ff00" stroke-width="1" fill="none" opacity="0.7">
    <!-- Forward arrow -->
    <path d="M50 40 L54 40 M52 38 L54 40 L52 42"/>
    <!-- Merge arrow -->
    <path d="M46 38 L50 42"/>
  </g>
  
  <!-- Terminal prompt -->
  <g font-family="monospace" font-size="8" fill="#00ff00" opacity="0.6">
    <text x="8" y="56">$&gt; git status</text>
  </g>
</svg>